<svg width="32" height="32" viewBox="0 0 32 32" fill="none" xmlns="http://www.w3.org/2000/svg">
<path d="M19.5 21.13C19.6658 21.13 19.8247 21.0642 19.9419 20.9469C20.0592 20.8297 20.125 20.6708 20.125 20.505C20.125 20.3392 20.0592 20.1803 19.9419 20.0631C19.8247 19.9458 19.6658 19.88 19.5 19.88C19.3342 19.88 19.1753 19.9458 19.0581 20.0631C18.9408 20.1803 18.875 20.3392 18.875 20.505C18.875 20.6708 18.9408 20.8297 19.0581 20.9469C19.1753 21.0642 19.3342 21.13 19.5 21.13ZM24.125 20.505C24.125 20.6708 24.0592 20.8297 23.9419 20.9469C23.8247 21.0642 23.6658 21.13 23.5 21.13C23.3342 21.13 23.1753 21.0642 23.0581 20.9469C22.9408 20.8297 22.875 20.6708 22.875 20.505C22.875 20.3392 22.9408 20.1803 23.0581 20.0631C23.1753 19.9458 23.3342 19.88 23.5 19.88C23.6658 19.88 23.8247 19.9458 23.9419 20.0631C24.0592 20.1803 24.125 20.3392 24.125 20.505ZM21.5 23.13C21.6658 23.13 21.8247 23.0642 21.9419 22.9469C22.0592 22.8297 22.125 22.6708 22.125 22.505C22.125 22.3392 22.0592 22.1803 21.9419 22.0631C21.8247 21.9458 21.6658 21.88 21.5 21.88C21.3342 21.88 21.1753 21.9458 21.0581 22.0631C20.9408 22.1803 20.875 22.3392 20.875 22.505C20.875 22.6708 20.9408 22.8297 21.0581 22.9469C21.1753 23.0642 21.3342 23.13 21.5 23.13ZM22.125 18.505C22.125 18.6708 22.0592 18.8297 21.9419 18.9469C21.8247 19.0642 21.6658 19.13 21.5 19.13C21.3342 19.13 21.1753 19.0642 21.0581 18.9469C20.9408 18.8297 20.875 18.6708 20.875 18.505C20.875 18.3392 20.9408 18.1803 21.0581 18.0631C21.1753 17.9458 21.3342 17.88 21.5 17.88C21.6658 17.88 21.8247 17.9458 21.9419 18.0631C22.0592 18.1803 22.125 18.3392 22.125 18.505ZM11 17.5C11 17.3674 11.0527 17.2402 11.1464 17.1464C11.2402 17.0527 11.3674 17 11.5 17H12.5C12.6326 17 12.7598 17.0527 12.8536 17.1464C12.9473 17.2402 13 17.3674 13 17.5C13 17.6326 12.9473 17.7598 12.8536 17.8536C12.7598 17.9473 12.6326 18 12.5 18H11.5C11.3674 18 11.2402 17.9473 11.1464 17.8536C11.0527 17.7598 11 17.6326 11 17.5Z" fill="white"/>
<path d="M10 8.915C9.7881 8.84015 9.59572 8.71864 9.43709 8.55946C9.27846 8.40027 9.15762 8.20747 9.08351 7.99531C9.0094 7.78315 8.9839 7.55705 9.00891 7.33371C9.03392 7.11038 9.10879 6.89551 9.228 6.705L9.229 6.703L9.231 6.7L9.235 6.694L9.245 6.677C9.29103 6.60446 9.33939 6.53342 9.39 6.464C9.485 6.329 9.62 6.146 9.797 5.929C10.147 5.498 10.665 4.926 11.347 4.353C12.701 3.21 14.782 2 17.5 2C21.759 2 26 5.603 26 10.5V28.5C26 28.8978 25.842 29.2794 25.5607 29.5607C25.2794 29.842 24.8978 30 24.5 30C24.1022 30 23.7206 29.842 23.4393 29.5607C23.158 29.2794 23 28.8978 23 28.5V24.21C22.3928 24.4552 21.7348 24.5476 21.0836 24.479C20.4324 24.4105 19.808 24.1832 19.2652 23.817C18.7223 23.4508 18.2777 22.9569 17.9704 22.3787C17.663 21.8006 17.5022 21.1558 17.5022 20.501C17.5022 19.8462 17.663 19.2014 17.9704 18.6233C18.2777 18.0451 18.7223 17.5512 19.2652 17.185C19.808 16.8188 20.4324 16.5915 21.0836 16.523C21.7348 16.4544 22.3928 16.5468 23 16.792V10.5C23 7.397 20.241 5 17.5 5C15.717 5 14.298 5.789 13.279 6.647C12.8593 7.00226 12.473 7.39523 12.125 7.821C12.0037 7.97052 11.8886 8.12499 11.78 8.284L11.769 8.3V8.299C11.5892 8.58469 11.3182 8.80137 11 8.914V13H11.5C11.6326 13 11.7598 13.0527 11.8536 13.1464C11.9473 13.2402 12 13.3674 12 13.5C12 13.6326 11.9473 13.7598 11.8536 13.8536C11.7598 13.9473 11.6326 14 11.5 14H11V14.027C12.1002 14.15 13.1164 14.6742 13.8544 15.4995C14.5923 16.3247 15.0002 17.393 15 18.5C15 23.589 13.161 25.613 12.363 26.492C12.141 26.736 12 26.892 12 27V27.5C12 27.645 12.252 27.664 12.61 27.69C13.487 27.756 15 27.87 15 30H12.5C11.5 30 10.5 29 10.5 28.5C10.5 29 9.5 30 8.5 30H6C6 27.87 7.513 27.756 8.39 27.69C8.748 27.664 9 27.645 9 27.5V27C9 26.891 8.859 26.736 8.637 26.492C7.84 25.612 6 23.589 6 18.5C6.00003 17.3931 6.40801 16.3251 7.14594 15.5001C7.88387 14.6751 8.89998 14.151 10 14.028V14H9.5C9.36739 14 9.24021 13.9473 9.14645 13.8536C9.05268 13.7598 9 13.6326 9 13.5C9 13.3674 9.05268 13.2402 9.14645 13.1464C9.24021 13.0527 9.36739 13 9.5 13H10V8.915ZM21.5 17.5C20.7044 17.5 19.9413 17.8161 19.3787 18.3787C18.8161 18.9413 18.5 19.7044 18.5 20.5C18.5 21.2956 18.8161 22.0587 19.3787 22.6213C19.9413 23.1839 20.7044 23.5 21.5 23.5C22.2956 23.5 23.0587 23.1839 23.6213 22.6213C24.1839 22.0587 24.5 21.2956 24.5 20.5C24.5 19.7044 24.1839 18.9413 23.6213 18.3787C23.0587 17.8161 22.2956 17.5 21.5 17.5ZM14 18.5C14 17.5717 13.6313 16.6815 12.9749 16.0251C12.3185 15.3687 11.4283 15 10.5 15C9.57174 15 8.6815 15.3687 8.02513 16.0251C7.36875 16.6815 7 17.5717 7 18.5C7 19.4283 7.36875 20.3185 8.02513 20.9749C8.6815 21.6313 9.57174 22 10.5 22C11.4283 22 12.3185 21.6313 12.9749 20.9749C13.6313 20.3185 14 19.4283 14 18.5Z" fill="white"/>
</svg>
