<svg width="27" height="26" viewBox="0 0 27 26" fill="none" xmlns="http://www.w3.org/2000/svg">
<path d="M24.4218 12.5135C24.3137 12.2088 24.0547 12.0286 23.784 11.9067L22.0976 11.242V4.67188C22.0976 4.40251 21.9906 4.14419 21.8001 3.95372C21.6096 3.76325 21.3513 3.65625 21.082 3.65625H17.2226V2.03125C17.2226 1.81576 17.137 1.6091 16.9846 1.45673C16.8322 1.30435 16.6256 1.21875 16.4101 1.21875H9.91007C9.69459 1.21875 9.48792 1.30435 9.33555 1.45673C9.18318 1.6091 9.09757 1.81576 9.09757 2.03125V3.65625H5.2382C4.96884 3.65625 4.71051 3.76325 4.52004 3.95372C4.32958 4.14419 4.22257 4.40251 4.22257 4.67188V11.246L2.54273 11.9092C2.27207 12.0311 2.00546 12.2139 1.89679 12.5186C1.78812 12.8233 1.73632 13.1183 1.84601 13.4834L4.43839 21.1098H4.49222C6.22488 21.1098 7.74222 20.2257 8.82437 18.8845C9.90703 20.2257 11.4234 21.0234 13.156 21.0234C14.8887 21.0234 16.406 20.2231 17.4882 18.882C18.5708 20.2231 20.0871 21.1098 21.8198 21.1098H21.8736L24.4762 13.4839C24.5859 13.1793 24.5305 12.8187 24.4218 12.5135ZM13.1601 7.71875L5.84757 10.6046V5.48438C5.84757 5.4305 5.86897 5.37884 5.90707 5.34074C5.94516 5.30265 5.99683 5.28125 6.0507 5.28125H20.2695C20.3233 5.28125 20.375 5.30265 20.4131 5.34074C20.4512 5.37884 20.4726 5.4305 20.4726 5.48438V10.6011L13.1601 7.71875Z" fill="white"/>
<path d="M17.6909 20.668C15.0376 22.5093 11.2747 22.5088 8.62137 20.668C8.62137 20.668 6.30371 23.8672 3.81543 23.8672L4.49234 23.918C6.00867 23.918 7.47066 23.3223 8.82449 22.6185C10.1629 23.3124 11.6485 23.6746 13.1561 23.6746C14.6638 23.6746 16.1493 23.3124 17.4878 22.6185C18.8416 23.3228 20.3036 23.9185 21.8199 23.9185L22.4968 23.8677C20.0771 23.8672 17.6909 20.668 17.6909 20.668Z" fill="white"/>
</svg>
